<svg width="800" height="600" viewBox="0 0 1200 800" fill="none" xmlns="http://www.w3.org/2000/svg">
  <!-- Background -->
  <rect width="1200" height="800" rx="12" fill="#F8FAFC" />
  
  <!-- Header -->
  <rect x="0" y="0" width="1200" height="80" fill="#FFFFFF" />
  <rect x="0" y="79" width="1200" height="1" fill="#E2E8F0" />
  
  <!-- Logo/Brand -->
  <rect x="40" y="25" width="32" height="32" rx="8" fill="#4F46E5" />
  <text x="85" y="45" font-family="Arial" font-size="18" font-weight="bold" fill="#1E293B">atScribe</text>
  
  <!-- Header Navigation -->
  <rect x="600" y="35" width="60" height="12" rx="2" fill="#64748B" />
  <rect x="680" y="35" width="80" height="12" rx="2" fill="#64748B" />
  <rect x="780" y="35" width="70" height="12" rx="2" fill="#64748B" />
  
  <!-- User Profile -->
  <rect x="1120" y="25" width="32" height="32" rx="16" fill="#E2E8F0" />
  <rect x="1060" y="25" width="32" height="32" rx="4" fill="#E2E8F0" />
  
  <!-- Main Content Container -->
  <rect x="40" y="120" width="1120" height="660" fill="transparent" />
  
  <!-- Subscription Notice Banner -->
  <rect x="40" y="120" width="1120" height="80" rx="12" fill="url(#subscriptionGradient)" />
  <rect x="40" y="120" width="1120" height="80" rx="12" fill="none" stroke="#C7D2FE" stroke-width="1" />
  
  <rect x="60" y="135" width="24" height="24" rx="4" fill="#4F46E5" />
  <text x="100" y="150" font-family="Arial" font-size="16" font-weight="bold" fill="#4C1D95">Choose a Subscription Plan</text>
  <text x="100" y="170" font-family="Arial" font-size="12" fill="#6D28D9">Unlock all features with a premium plan</text>
  
  <rect x="1000" y="140" width="100" height="32" rx="6" fill="url(#buttonGradient)" />
  <text x="1050" y="160" font-family="Arial" font-size="12" font-weight="bold" fill="#FFFFFF" text-anchor="middle">View Plans</text>
  
  <!-- Stats Cards Row -->
  <rect x="40" y="220" width="265" height="120" rx="8" fill="#FFFFFF" />
  <rect x="40" y="220" width="265" height="120" rx="8" fill="none" stroke="#E2E8F0" stroke-width="1" />
  <rect x="60" y="240" width="20" height="20" rx="4" fill="#EEF2FF" />
  <rect x="65" y="245" width="10" height="10" rx="2" fill="#4F46E5" />
  <text x="90" y="255" font-family="Arial" font-size="14" font-weight="bold" fill="#1E293B">Resumes</text>
  <text x="90" y="275" font-family="Arial" font-size="12" fill="#64748B">You have 3 resumes</text>
  <rect x="220" y="245" width="60" height="24" rx="4" fill="#F1F5F9" />
  <text x="250" y="260" font-family="Arial" font-size="10" fill="#4F46E5" text-anchor="middle">View All</text>
  
  <rect x="325" y="220" width="265" height="120" rx="8" fill="#FFFFFF" />
  <rect x="325" y="220" width="265" height="120" rx="8" fill="none" stroke="#E2E8F0" stroke-width="1" />
  <rect x="345" y="240" width="20" height="20" rx="4" fill="#FEF3F2" />
  <rect x="350" y="245" width="10" height="10" rx="2" fill="#DC2626" />
  <text x="375" y="255" font-family="Arial" font-size="14" font-weight="bold" fill="#1E293B">Applications</text>
  <text x="375" y="275" font-family="Arial" font-size="12" fill="#64748B">12 submitted</text>
  <text x="480" y="300" font-family="Arial" font-size="24" font-weight="bold" fill="#DC2626">12</text>
  
  <rect x="610" y="220" width="265" height="120" rx="8" fill="#FFFFFF" />
  <rect x="610" y="220" width="265" height="120" rx="8" fill="none" stroke="#E2E8F0" stroke-width="1" />
  <rect x="630" y="240" width="20" height="20" rx="4" fill="#F0FDF4" />
  <rect x="635" y="245" width="10" height="10" rx="2" fill="#16A34A" />
  <text x="660" y="255" font-family="Arial" font-size="14" font-weight="bold" fill="#1E293B">Interviews</text>
  <text x="660" y="275" font-family="Arial" font-size="12" fill="#64748B">3 scheduled</text>
  <text x="770" y="300" font-family="Arial" font-size="24" font-weight="bold" fill="#16A34A">3</text>
  
  <rect x="895" y="220" width="265" height="120" rx="8" fill="#FFFFFF" />
  <rect x="895" y="220" width="265" height="120" rx="8" fill="none" stroke="#E2E8F0" stroke-width="1" />
  <rect x="915" y="240" width="20" height="20" rx="4" fill="#FEF7ED" />
  <rect x="920" y="245" width="10" height="10" rx="2" fill="#EA580C" />
  <text x="945" y="255" font-family="Arial" font-size="14" font-weight="bold" fill="#1E293B">ATS Score</text>
  <text x="945" y="275" font-family="Arial" font-size="12" fill="#64748B">Average score</text>
  <text x="1050" y="300" font-family="Arial" font-size="24" font-weight="bold" fill="#EA580C">85%</text>
  
  <!-- ATS Scanning Animation Section -->
  <rect x="40" y="360" width="1120" height="140" rx="8" fill="#FFFFFF" />
  <rect x="40" y="360" width="1120" height="140" rx="8" fill="none" stroke="#E2E8F0" stroke-width="1" />
  <text x="60" y="385" font-family="Arial" font-size="16" font-weight="bold" fill="#1E293B">ATS Resume Scanning</text>
  <text x="60" y="405" font-family="Arial" font-size="12" fill="#64748B">Watch AI analyze and optimize your resume in real-time</text>
  
  <!-- Resume Document Preview -->
  <rect x="80" y="420" width="300" height="60" rx="6" fill="#F8FAFC" />
  <rect x="80" y="420" width="300" height="60" rx="6" fill="none" stroke="#E2E8F0" stroke-width="1" />
  <text x="90" y="440" font-family="Arial" font-size="12" font-weight="bold" fill="#374151">Resume.pdf</text>
  
  <!-- Document Content Lines -->
  <rect x="90" y="450" width="80" height="3" rx="1" fill="#64748B" />
  <rect x="180" y="450" width="60" height="3" rx="1" fill="#64748B" />
  <rect x="250" y="450" width="70" height="3" rx="1" fill="#64748B" />
  <rect x="330" y="450" width="40" height="3" rx="1" fill="#64748B" />
  
  <rect x="90" y="460" width="70" height="3" rx="1" fill="#64748B" />
  <rect x="170" y="460" width="90" height="3" rx="1" fill="#64748B" />
  <rect x="270" y="460" width="50" height="3" rx="1" fill="#64748B" />
  
  <rect x="90" y="470" width="100" height="3" rx="1" fill="#64748B" />
  <rect x="200" y="470" width="55" height="3" rx="1" fill="#64748B" />
  <rect x="265" y="470" width="75" height="3" rx="1" fill="#64748B" />
  
  <!-- Animated Scanner Line -->
  <rect x="80" y="420" width="300" height="2" rx="1" fill="#4F46E5" opacity="0.8">
    <animate attributeName="y" values="420;480;420" dur="4s" repeatCount="indefinite" />
    <animate attributeName="opacity" values="0.3;1;0.3" dur="4s" repeatCount="indefinite" />
  </rect>
  
  <!-- Keyword Highlighting Animation -->
  <rect x="180" y="450" width="60" height="3" rx="1" fill="#4F46E5" opacity="0.3">
    <animate attributeName="opacity" values="0.1;0.8;0.1" dur="4s" repeatCount="indefinite" />
  </rect>
  
  <rect x="170" y="460" width="90" height="3" rx="1" fill="#10B981" opacity="0.3">
    <animate attributeName="opacity" values="0.1;0.8;0.1" dur="4s" repeatCount="indefinite" begin="1s" />
  </rect>
  
  <rect x="90" y="470" width="100" height="3" rx="1" fill="#F59E0B" opacity="0.3">
    <animate attributeName="opacity" values="0.1;0.8;0.1" dur="4s" repeatCount="indefinite" begin="2s" />
  </rect>
  
  <!-- ATS Score Display -->
  <rect x="400" y="420" width="250" height="60" rx="6" fill="#F0FDF4" />
  <rect x="400" y="420" width="250" height="60" rx="6" fill="none" stroke="#16A34A" stroke-width="1" />
  <rect x="420" y="435" width="24" height="24" rx="12" fill="#10B981" />
  <text x="432" y="451" font-family="Arial" font-size="14" font-weight="bold" fill="#FFFFFF" text-anchor="middle">✓</text>
  <text x="455" y="445" font-family="Arial" font-size="14" font-weight="bold" fill="#166534">ATS Score: 92%</text>
  <text x="455" y="460" font-family="Arial" font-size="12" fill="#16A34A">Excellent optimization!</text>
  
  <!-- Animated Progress Bar -->
  <rect x="420" y="465" width="200" height="6" rx="3" fill="#E5E7EB" />
  <rect x="420" y="465" width="184" height="6" rx="3" fill="#10B981">
    <animate attributeName="width" values="0;184;184" dur="4s" repeatCount="indefinite" />
  </rect>
  
  <!-- Keyword Extraction Panel -->
  <rect x="670" y="420" width="450" height="60" rx="6" fill="#EEF2FF" />
  <rect x="670" y="420" width="450" height="60" rx="6" fill="none" stroke="#C7D2FE" stroke-width="1" />
  <text x="685" y="440" font-family="Arial" font-size="12" font-weight="bold" fill="#4C1D95">Keywords Extracted:</text>
  
  <!-- Animated Keywords -->
  <rect x="685" y="450" width="45" height="18" rx="9" fill="#4F46E5" opacity="0.8">
    <animate attributeName="opacity" values="0.3;1;0.3" dur="3s" repeatCount="indefinite" />
  </rect>
  <text x="707" y="462" font-family="Arial" font-size="10" font-weight="bold" fill="#FFFFFF" text-anchor="middle">React</text>
  
  <rect x="740" y="450" width="70" height="18" rx="9" fill="#10B981" opacity="0.8">
    <animate attributeName="opacity" values="0.3;1;0.3" dur="3s" repeatCount="indefinite" begin="0.5s" />
  </rect>
  <text x="775" y="462" font-family="Arial" font-size="10" font-weight="bold" fill="#FFFFFF" text-anchor="middle">JavaScript</text>
  
  <rect x="820" y="450" width="55" height="18" rx="9" fill="#F59E0B" opacity="0.8">
    <animate attributeName="opacity" values="0.3;1;0.3" dur="3s" repeatCount="indefinite" begin="1s" />
  </rect>
  <text x="847" y="462" font-family="Arial" font-size="10" font-weight="bold" fill="#FFFFFF" text-anchor="middle">Node.js</text>
  
  <rect x="885" y="450" width="40" height="18" rx="9" fill="#8B5CF6" opacity="0.8">
    <animate attributeName="opacity" values="0.3;1;0.3" dur="3s" repeatCount="indefinite" begin="1.5s" />
  </rect>
  <text x="905" y="462" font-family="Arial" font-size="10" font-weight="bold" fill="#FFFFFF" text-anchor="middle">CSS</text>
  
  <rect x="935" y="450" width="50" height="18" rx="9" fill="#DC2626" opacity="0.8">
    <animate attributeName="opacity" values="0.3;1;0.3" dur="3s" repeatCount="indefinite" begin="2s" />
  </rect>
  <text x="960" y="462" font-family="Arial" font-size="10" font-weight="bold" fill="#FFFFFF" text-anchor="middle">Python</text>
  
  <rect x="995" y="450" width="45" height="18" rx="9" fill="#059669" opacity="0.8">
    <animate attributeName="opacity" values="0.3;1;0.3" dur="3s" repeatCount="indefinite" begin="2.5s" />
  </rect>
  <text x="1017" y="462" font-family="Arial" font-size="10" font-weight="bold" fill="#FFFFFF" text-anchor="middle">AWS</text>
  
  <rect x="1050" y="450" width="50" height="18" rx="9" fill="#7C2D12" opacity="0.8">
    <animate attributeName="opacity" values="0.3;1;0.3" dur="3s" repeatCount="indefinite" begin="3s" />
  </rect>
  <text x="1075" y="462" font-family="Arial" font-size="10" font-weight="bold" fill="#FFFFFF" text-anchor="middle">Docker</text>
  
  <!-- Application Progress Section -->
  <rect x="40" y="520" width="1120" height="80" rx="8" fill="#FFFFFF" />
  <rect x="40" y="520" width="1120" height="80" rx="8" fill="none" stroke="#E2E8F0" stroke-width="1" />
  <text x="60" y="545" font-family="Arial" font-size="16" font-weight="bold" fill="#1E293B">Application Progress</text>
  <text x="60" y="565" font-family="Arial" font-size="12" fill="#64748B">Track your job applications through different stages</text>
  
  <!-- Simplified Kanban Board Preview -->
  <rect x="80" y="575" width="120" height="20" rx="4" fill="#EEF2FF" />
  <text x="140" y="588" font-family="Arial" font-size="10" fill="#4F46E5" text-anchor="middle">Applied (8)</text>
  
  <rect x="220" y="575" width="120" height="20" rx="4" fill="#FEF3C7" />
  <text x="280" y="588" font-family="Arial" font-size="10" fill="#D97706" text-anchor="middle">Interview (3)</text>
  
  <rect x="360" y="575" width="120" height="20" rx="4" fill="#DCFCE7" />
  <text x="420" y="588" font-family="Arial" font-size="10" fill="#16A34A" text-anchor="middle">Offer (1)</text>
  
  <!-- Resumes and Cover Letters Row -->
  <rect x="40" y="620" width="545" height="140" rx="8" fill="#FFFFFF" />
  <rect x="40" y="620" width="545" height="140" rx="8" fill="none" stroke="#E2E8F0" stroke-width="1" />
  <text x="60" y="645" font-family="Arial" font-size="16" font-weight="bold" fill="#1E293B">Resumes</text>
  <text x="60" y="665" font-family="Arial" font-size="12" fill="#64748B">You have 3 resumes</text>
  <rect x="490" y="640" width="70" height="24" rx="4" fill="#F1F5F9" />
  <text x="525" y="655" font-family="Arial" font-size="10" fill="#4F46E5" text-anchor="middle">View All</text>
  
  <!-- Resume Items -->
  <rect x="60" y="680" width="505" height="30" rx="6" fill="#F8FAFC" />
  <rect x="70" y="687" width="16" height="16" rx="2" fill="#4F46E5" />
  <text x="95" y="699" font-family="Arial" font-size="12" fill="#1E293B">Software Engineer Resume</text>
  <rect x="520" y="687" width="30" height="16" rx="8" fill="#EEF2FF" />
  <text x="535" y="698" font-family="Arial" font-size="8" fill="#4F46E5" text-anchor="middle">Edit</text>
  
  <rect x="60" y="720" width="505" height="30" rx="6" fill="#F8FAFC" />
  <rect x="70" y="727" width="16" height="16" rx="2" fill="#4F46E5" />
  <text x="95" y="739" font-family="Arial" font-size="12" fill="#1E293B">Product Manager Resume</text>
  <rect x="520" y="727" width="30" height="16" rx="8" fill="#EEF2FF" />
  <text x="535" y="738" font-family="Arial" font-size="8" fill="#4F46E5" text-anchor="middle">Edit</text>
  
  <rect x="615" y="620" width="545" height="160" rx="8" fill="#FFFFFF" />
  <rect x="615" y="620" width="545" height="160" rx="8" fill="none" stroke="#E2E8F0" stroke-width="1" />
  <text x="635" y="645" font-family="Arial" font-size="16" font-weight="bold" fill="#1E293B">Cover Letters</text>
  <text x="635" y="665" font-family="Arial" font-size="12" fill="#64748B">You have 2 cover letters</text>
  <rect x="1065" y="640" width="70" height="24" rx="4" fill="#F1F5F9" />
  <text x="1100" y="655" font-family="Arial" font-size="10" fill="#4F46E5" text-anchor="middle">View All</text>
  
  <!-- Cover Letter Items -->
  <rect x="635" y="680" width="505" height="30" rx="6" fill="#F8FAFC" />
  <rect x="645" y="687" width="16" height="16" rx="2" fill="#8B5CF6" />
  <text x="670" y="699" font-family="Arial" font-size="12" fill="#1E293B">Google Application Letter</text>
  <rect x="1095" y="687" width="30" height="16" rx="8" fill="#F3E8FF" />
  <text x="1110" y="698" font-family="Arial" font-size="8" fill="#8B5CF6" text-anchor="middle">Edit</text>
  
  <rect x="635" y="720" width="505" height="30" rx="6" fill="#F8FAFC" />
  <rect x="645" y="727" width="16" height="16" rx="2" fill="#8B5CF6" />
  <text x="670" y="739" font-family="Arial" font-size="12" fill="#1E293B">Meta Application Letter</text>
  <rect x="1095" y="727" width="30" height="16" rx="8" fill="#F3E8FF" />
  <text x="1110" y="738" font-family="Arial" font-size="8" fill="#8B5CF6" text-anchor="middle">Edit</text>
  
  <!-- Floating Action Button (Mobile) -->
  <circle cx="1120" cy="720" r="28" fill="url(#buttonGradient)" />
  <rect x="1112" y="712" width="16" height="16" fill="none" stroke="#FFFFFF" stroke-width="2" />
  <rect x="1118" y="706" width="4" height="28" fill="#FFFFFF" />
  <rect x="1106" y="718" width="28" height="4" fill="#FFFFFF" />
  
  <!-- Gradients -->
  <defs>
    <linearGradient id="subscriptionGradient" x1="0%" y1="0%" x2="100%" y2="0%">
      <stop offset="0%" style="stop-color:#EEF2FF;stop-opacity:1" />
      <stop offset="100%" style="stop-color:#F3E8FF;stop-opacity:1" />
    </linearGradient>
    <linearGradient id="buttonGradient" x1="0%" y1="0%" x2="100%" y2="0%">
      <stop offset="0%" style="stop-color:#4F46E5;stop-opacity:1" />
      <stop offset="100%" style="stop-color:#7C3AED;stop-opacity:1" />
    </linearGradient>
  </defs>
</svg> 